<svg width="150" height="150" viewBox="0 0 150 150" fill="none" xmlns="http://www.w3.org/2000/svg">
<path d="M75 12.5H53.125C47.3234 12.5 41.7594 14.8047 37.657 18.907C33.5547 23.0094 31.25 28.5734 31.25 34.375C31.25 40.1766 33.5547 45.7406 37.657 49.843C41.7594 53.9453 47.3234 56.25 53.125 56.25M75 12.5V56.25M75 12.5H96.875C99.7477 12.5 102.592 13.0658 105.246 14.1651C107.9 15.2645 110.312 16.8758 112.343 18.907C114.374 20.9383 115.986 23.3498 117.085 26.0038C118.184 28.6578 118.75 31.5023 118.75 34.375C118.75 37.2477 118.184 40.0922 117.085 42.7462C115.986 45.4002 114.374 47.8117 112.343 49.843C110.312 51.8742 107.9 53.4855 105.246 54.5849C102.592 55.6842 99.7477 56.25 96.875 56.25M75 56.25H53.125M75 56.25H96.875M75 56.25V100M53.125 56.25C47.3234 56.25 41.7594 58.5547 37.657 62.657C33.5547 66.7594 31.25 72.3234 31.25 78.125C31.25 83.9266 33.5547 89.4906 37.657 93.593C41.7594 97.6953 47.3234 100 53.125 100M96.875 56.25C94.0023 56.25 91.1578 56.8158 88.5038 57.9151C85.8498 59.0145 83.4383 60.6258 81.407 62.657C79.3758 64.6883 77.7645 67.0998 76.6651 69.7538C75.5658 72.4078 75 75.2523 75 78.125C75 80.9977 75.5658 83.8422 76.6651 86.4962C77.7645 89.1502 79.3758 91.5617 81.407 93.593C83.4383 95.6242 85.8498 97.2355 88.5038 98.3349C91.1578 99.4342 94.0023 100 96.875 100C99.7477 100 102.592 99.4342 105.246 98.3349C107.9 97.2355 110.312 95.6242 112.343 93.593C114.374 91.5617 115.986 89.1502 117.085 86.4962C118.184 83.8422 118.75 80.9977 118.75 78.125C118.75 75.2523 118.184 72.4078 117.085 69.7538C115.986 67.0998 114.374 64.6883 112.343 62.657C110.312 60.6258 107.9 59.0145 105.246 57.9151C102.592 56.8158 99.7477 56.25 96.875 56.25ZM53.125 100C47.3234 100 41.7594 102.305 37.657 106.407C33.5547 110.509 31.25 116.073 31.25 121.875C31.25 127.677 33.5547 133.241 37.657 137.343C41.7594 141.445 47.3234 143.75 53.125 143.75C58.9266 143.75 64.4906 141.445 68.593 137.343C72.6953 133.241 75 127.677 75 121.875V100M53.125 100H75" stroke="#A42715" stroke-width="4" stroke-linecap="round" stroke-linejoin="round"/>
</svg>
